<mxfile host="app.diagrams.net" agent="Mozilla/5.0 (Windows NT 10.0; Win64; x64) AppleWebKit/537.36 (KHTML, like Gecko) Chrome/138.0.0.0 Safari/537.36" version="28.0.5">
  <diagram name="Page-1" id="F9enPEbknwxeYVMNx5j7">
    <mxGraphModel dx="1678" dy="924" grid="1" gridSize="10" guides="1" tooltips="1" connect="1" arrows="1" fold="1" page="1" pageScale="1" pageWidth="850" pageHeight="1100" math="0" shadow="0">
      <root>
        <mxCell id="0" />
        <mxCell id="1" parent="0" />
        <mxCell id="XNoicQ9Mufn2PK3fL9D3-23" value="" style="edgeStyle=orthogonalEdgeStyle;rounded=0;orthogonalLoop=1;jettySize=auto;html=1;" edge="1" parent="1" source="XNoicQ9Mufn2PK3fL9D3-1">
          <mxGeometry relative="1" as="geometry">
            <mxPoint x="430" y="150" as="targetPoint" />
          </mxGeometry>
        </mxCell>
        <mxCell id="XNoicQ9Mufn2PK3fL9D3-1" value="Start" style="ellipse;whiteSpace=wrap;html=1;" vertex="1" parent="1">
          <mxGeometry x="350" y="20" width="160" height="80" as="geometry" />
        </mxCell>
        <mxCell id="XNoicQ9Mufn2PK3fL9D3-31" value="" style="edgeStyle=orthogonalEdgeStyle;rounded=0;orthogonalLoop=1;jettySize=auto;html=1;" edge="1" parent="1" source="XNoicQ9Mufn2PK3fL9D3-14" target="XNoicQ9Mufn2PK3fL9D3-15">
          <mxGeometry relative="1" as="geometry" />
        </mxCell>
        <mxCell id="XNoicQ9Mufn2PK3fL9D3-14" value="restart = 1&lt;div&gt;exit = -1&lt;/div&gt;" style="rhombus;whiteSpace=wrap;html=1;" vertex="1" parent="1">
          <mxGeometry x="625" y="1120" width="150" height="80" as="geometry" />
        </mxCell>
        <mxCell id="XNoicQ9Mufn2PK3fL9D3-32" value="" style="edgeStyle=orthogonalEdgeStyle;rounded=0;orthogonalLoop=1;jettySize=auto;html=1;" edge="1" parent="1" source="XNoicQ9Mufn2PK3fL9D3-15" target="XNoicQ9Mufn2PK3fL9D3-18">
          <mxGeometry relative="1" as="geometry" />
        </mxCell>
        <mxCell id="XNoicQ9Mufn2PK3fL9D3-15" value="" style="ellipse;whiteSpace=wrap;html=1;aspect=fixed;" vertex="1" parent="1">
          <mxGeometry x="685" y="1250" width="30" height="30" as="geometry" />
        </mxCell>
        <mxCell id="XNoicQ9Mufn2PK3fL9D3-18" value="Stop" style="ellipse;whiteSpace=wrap;html=1;" vertex="1" parent="1">
          <mxGeometry x="620" y="1330" width="160" height="80" as="geometry" />
        </mxCell>
        <mxCell id="XNoicQ9Mufn2PK3fL9D3-59" value="" style="edgeStyle=orthogonalEdgeStyle;rounded=0;orthogonalLoop=1;jettySize=auto;html=1;" edge="1" parent="1" source="XNoicQ9Mufn2PK3fL9D3-57">
          <mxGeometry relative="1" as="geometry">
            <mxPoint x="430" y="320" as="targetPoint" />
          </mxGeometry>
        </mxCell>
        <mxCell id="XNoicQ9Mufn2PK3fL9D3-57" value="Do you want to play game?" style="shape=parallelogram;perimeter=parallelogramPerimeter;whiteSpace=wrap;html=1;fixedSize=1;" vertex="1" parent="1">
          <mxGeometry x="335" y="220" width="190" height="60" as="geometry" />
        </mxCell>
        <mxCell id="XNoicQ9Mufn2PK3fL9D3-63" value="" style="edgeStyle=orthogonalEdgeStyle;rounded=0;orthogonalLoop=1;jettySize=auto;html=1;" edge="1" parent="1">
          <mxGeometry relative="1" as="geometry">
            <mxPoint x="430" y="380" as="sourcePoint" />
            <mxPoint x="430" y="420" as="targetPoint" />
          </mxGeometry>
        </mxCell>
        <mxCell id="XNoicQ9Mufn2PK3fL9D3-66" value="input Number" style="shape=parallelogram;perimeter=parallelogramPerimeter;whiteSpace=wrap;html=1;fixedSize=1;" vertex="1" parent="1">
          <mxGeometry x="335" y="320" width="190" height="60" as="geometry" />
        </mxCell>
        <mxCell id="XNoicQ9Mufn2PK3fL9D3-70" value="" style="edgeStyle=orthogonalEdgeStyle;rounded=0;orthogonalLoop=1;jettySize=auto;html=1;" edge="1" parent="1" source="XNoicQ9Mufn2PK3fL9D3-68" target="XNoicQ9Mufn2PK3fL9D3-69">
          <mxGeometry relative="1" as="geometry" />
        </mxCell>
        <mxCell id="XNoicQ9Mufn2PK3fL9D3-72" style="edgeStyle=orthogonalEdgeStyle;rounded=0;orthogonalLoop=1;jettySize=auto;html=1;exitX=1;exitY=0.5;exitDx=0;exitDy=0;entryX=0.5;entryY=0;entryDx=0;entryDy=0;" edge="1" parent="1" source="XNoicQ9Mufn2PK3fL9D3-68" target="XNoicQ9Mufn2PK3fL9D3-71">
          <mxGeometry relative="1" as="geometry" />
        </mxCell>
        <mxCell id="XNoicQ9Mufn2PK3fL9D3-68" value="input 1" style="rhombus;whiteSpace=wrap;html=1;" vertex="1" parent="1">
          <mxGeometry x="390" y="420" width="80" height="80" as="geometry" />
        </mxCell>
        <mxCell id="XNoicQ9Mufn2PK3fL9D3-75" value="" style="edgeStyle=orthogonalEdgeStyle;rounded=0;orthogonalLoop=1;jettySize=auto;html=1;" edge="1" parent="1" source="XNoicQ9Mufn2PK3fL9D3-69" target="XNoicQ9Mufn2PK3fL9D3-74">
          <mxGeometry relative="1" as="geometry" />
        </mxCell>
        <mxCell id="XNoicQ9Mufn2PK3fL9D3-69" value="You have score 100" style="rounded=0;whiteSpace=wrap;html=1;" vertex="1" parent="1">
          <mxGeometry x="370" y="560" width="120" height="60" as="geometry" />
        </mxCell>
        <mxCell id="XNoicQ9Mufn2PK3fL9D3-73" style="edgeStyle=orthogonalEdgeStyle;rounded=0;orthogonalLoop=1;jettySize=auto;html=1;entryX=1;entryY=0.5;entryDx=0;entryDy=0;" edge="1" parent="1" source="XNoicQ9Mufn2PK3fL9D3-71" target="XNoicQ9Mufn2PK3fL9D3-15">
          <mxGeometry relative="1" as="geometry">
            <Array as="points">
              <mxPoint x="780" y="1265" />
            </Array>
          </mxGeometry>
        </mxCell>
        <mxCell id="XNoicQ9Mufn2PK3fL9D3-80" style="edgeStyle=orthogonalEdgeStyle;rounded=0;orthogonalLoop=1;jettySize=auto;html=1;entryX=1;entryY=0.5;entryDx=0;entryDy=0;" edge="1" parent="1" source="XNoicQ9Mufn2PK3fL9D3-71" target="XNoicQ9Mufn2PK3fL9D3-81">
          <mxGeometry relative="1" as="geometry">
            <mxPoint x="890" y="310" as="targetPoint" />
            <Array as="points">
              <mxPoint x="860" y="590" />
              <mxPoint x="860" y="165" />
            </Array>
          </mxGeometry>
        </mxCell>
        <mxCell id="XNoicQ9Mufn2PK3fL9D3-71" value="input -1&amp;nbsp;" style="rhombus;whiteSpace=wrap;html=1;" vertex="1" parent="1">
          <mxGeometry x="740" y="550" width="80" height="80" as="geometry" />
        </mxCell>
        <mxCell id="XNoicQ9Mufn2PK3fL9D3-77" value="" style="edgeStyle=orthogonalEdgeStyle;rounded=0;orthogonalLoop=1;jettySize=auto;html=1;" edge="1" parent="1" source="XNoicQ9Mufn2PK3fL9D3-74" target="XNoicQ9Mufn2PK3fL9D3-76">
          <mxGeometry relative="1" as="geometry" />
        </mxCell>
        <mxCell id="XNoicQ9Mufn2PK3fL9D3-74" value="Random Number" style="rounded=0;whiteSpace=wrap;html=1;" vertex="1" parent="1">
          <mxGeometry x="370" y="670" width="120" height="60" as="geometry" />
        </mxCell>
        <mxCell id="XNoicQ9Mufn2PK3fL9D3-79" value="" style="edgeStyle=orthogonalEdgeStyle;rounded=0;orthogonalLoop=1;jettySize=auto;html=1;" edge="1" parent="1" source="XNoicQ9Mufn2PK3fL9D3-76">
          <mxGeometry relative="1" as="geometry">
            <mxPoint x="430" y="900" as="targetPoint" />
          </mxGeometry>
        </mxCell>
        <mxCell id="XNoicQ9Mufn2PK3fL9D3-76" value="Guess the Winning Number (1-100)" style="shape=parallelogram;perimeter=parallelogramPerimeter;whiteSpace=wrap;html=1;fixedSize=1;" vertex="1" parent="1">
          <mxGeometry x="315" y="790" width="230" height="60" as="geometry" />
        </mxCell>
        <mxCell id="XNoicQ9Mufn2PK3fL9D3-84" value="" style="edgeStyle=orthogonalEdgeStyle;rounded=0;orthogonalLoop=1;jettySize=auto;html=1;" edge="1" parent="1" target="XNoicQ9Mufn2PK3fL9D3-83">
          <mxGeometry relative="1" as="geometry">
            <mxPoint x="430" y="980" as="sourcePoint" />
          </mxGeometry>
        </mxCell>
        <mxCell id="XNoicQ9Mufn2PK3fL9D3-82" value="" style="edgeStyle=orthogonalEdgeStyle;rounded=0;orthogonalLoop=1;jettySize=auto;html=1;" edge="1" parent="1" source="XNoicQ9Mufn2PK3fL9D3-81" target="XNoicQ9Mufn2PK3fL9D3-57">
          <mxGeometry relative="1" as="geometry" />
        </mxCell>
        <mxCell id="XNoicQ9Mufn2PK3fL9D3-81" value="" style="ellipse;whiteSpace=wrap;html=1;aspect=fixed;" vertex="1" parent="1">
          <mxGeometry x="415" y="150" width="30" height="30" as="geometry" />
        </mxCell>
        <mxCell id="XNoicQ9Mufn2PK3fL9D3-85" style="edgeStyle=orthogonalEdgeStyle;rounded=0;orthogonalLoop=1;jettySize=auto;html=1;entryX=0;entryY=0.5;entryDx=0;entryDy=0;" edge="1" parent="1" source="XNoicQ9Mufn2PK3fL9D3-83" target="XNoicQ9Mufn2PK3fL9D3-81">
          <mxGeometry relative="1" as="geometry">
            <mxPoint x="250" y="580" as="targetPoint" />
            <Array as="points">
              <mxPoint x="240" y="1060" />
              <mxPoint x="240" y="165" />
            </Array>
          </mxGeometry>
        </mxCell>
        <mxCell id="XNoicQ9Mufn2PK3fL9D3-83" value="Show score" style="shape=parallelogram;perimeter=parallelogramPerimeter;whiteSpace=wrap;html=1;fixedSize=1;" vertex="1" parent="1">
          <mxGeometry x="370" y="1030" width="120" height="60" as="geometry" />
        </mxCell>
        <mxCell id="XNoicQ9Mufn2PK3fL9D3-86" value="" style="rhombus;whiteSpace=wrap;html=1;" vertex="1" parent="1">
          <mxGeometry x="390" y="900" width="80" height="80" as="geometry" />
        </mxCell>
      </root>
    </mxGraphModel>
  </diagram>
</mxfile>
